<?xml version="1.0" standalone="no"?><!DOCTYPE svg PUBLIC "-//W3C//DTD SVG 1.1//EN" "http://www.w3.org/Graphics/SVG/1.1/DTD/svg11.dtd"><svg height="1024" node-id="1" sillyvg="true" template-height="1024" template-width="1024" version="1.1" viewBox="0 0 1024 1024" width="1024" xmlns="http://www.w3.org/2000/svg" xmlns:xlink="http://www.w3.org/1999/xlink"><defs node-id="134"><linearGradient gradientUnits="userSpaceOnUse" id="SVGID_1_" node-id="27" spreadMethod="pad" x1="190.1745" x2="693.7246" y1="542.5681" y2="542.5681"><stop offset="0" stop-color="#6386db"></stop><stop offset="1" stop-color="#8eb0ec"></stop></linearGradient><linearGradient gradientUnits="userSpaceOnUse" id="SVGID_2_" node-id="32" spreadMethod="pad" x1="257.835" x2="704.5136" y1="563.279" y2="563.279"><stop offset="0" stop-color="#6386db"></stop><stop offset="1" stop-color="#8eb0ec"></stop></linearGradient><linearGradient gradientUnits="userSpaceOnUse" id="SVGID_3_" node-id="52" spreadMethod="pad" x1="227.8216" x2="646.389" y1="178.727" y2="178.727"><stop offset="0" stop-color="#d6d9e4"></stop><stop offset="1" stop-color="#f9f9fb"></stop></linearGradient><linearGradient gradientUnits="userSpaceOnUse" id="SVGID_4_" node-id="57" spreadMethod="pad" x1="295.4818" x2="663.9128" y1="198.3821" y2="198.3821"><stop offset="0.004950495" stop-color="#eff0f4"></stop><stop offset="1" stop-color="#feffff"></stop></linearGradient><linearGradient gradientUnits="userSpaceOnUse" id="SVGID_6_" node-id="64" spreadMethod="pad" x1="295.4818" x2="663.9128" y1="198.3821" y2="198.3821"><stop offset="0.004950495" stop-color="#eff0f4"></stop><stop offset="1" stop-color="#feffff"></stop></linearGradient><linearGradient gradientUnits="userSpaceOnUse" id="SVGID_11_" node-id="83" spreadMethod="pad" x1="843.1415" x2="892.6806" y1="748.989" y2="748.989"><stop offset="0" stop-color="#ffa21e"></stop><stop offset="1" stop-color="#ffcb27"></stop></linearGradient><linearGradient gradientUnits="userSpaceOnUse" id="SVGID_13_" node-id="90" spreadMethod="pad" x1="843.1415" x2="890.7916" y1="748.5198" y2="748.5198"><stop offset="0" stop-color="#ffa21e"></stop><stop offset="1" stop-color="#ffcb27"></stop></linearGradient><linearGradient gradientUnits="userSpaceOnUse" id="SVGID_14_" node-id="94" spreadMethod="pad" x1="843.7479" x2="892.4995" y1="749.0572" y2="749.0572"><stop offset="0" stop-color="#ffa21e"></stop><stop offset="1" stop-color="#ffcb27"></stop></linearGradient><linearGradient gradientUnits="userSpaceOnUse" id="SVGID_15_" node-id="98" spreadMethod="pad" x1="845.4559" x2="892.6806" y1="749.5264" y2="749.5264"><stop offset="0" stop-color="#ffa21e"></stop><stop offset="1" stop-color="#ffcb27"></stop></linearGradient><linearGradient gradientUnits="userSpaceOnUse" id="SVGID_16_" node-id="102" spreadMethod="pad" x1="628.2802" x2="890.1851" y1="730.6558" y2="730.6558"><stop offset="0" stop-color="#ffa21e"></stop><stop offset="1" stop-color="#ffcb27"></stop></linearGradient><linearGradient gradientUnits="userSpaceOnUse" id="SVGID_17_" node-id="107" spreadMethod="pad" x1="675.3156" x2="902.3351" y1="774.9055" y2="774.9055"><stop offset="0" stop-color="#ffa21e"></stop><stop offset="1" stop-color="#ffcb27"></stop></linearGradient><linearGradient gradientUnits="userSpaceOnUse" id="SVGID_18_" node-id="112" spreadMethod="pad" x1="418.3387" x2="778.814" y1="674.1369" y2="674.1369"><stop offset="0" stop-color="#ffa21e"></stop><stop offset="1" stop-color="#ffcb27"></stop></linearGradient><linearGradient gradientUnits="userSpaceOnUse" id="SVGID_19_" node-id="117" spreadMethod="pad" x1="465.3821" x2="829.6886" y1="693.9069" y2="693.9069"><stop offset="0" stop-color="#ffa21e"></stop><stop offset="1" stop-color="#ffcb27"></stop></linearGradient><linearGradient gradientUnits="userSpaceOnUse" id="SVGID_20_" node-id="122" spreadMethod="pad" x1="565.1153" x2="766.3977" y1="702.1524" y2="702.1524"><stop offset="0.004950495" stop-color="#eff0f4"></stop><stop offset="1" stop-color="#feffff"></stop></linearGradient><clipPath id="SVGID_12_" node-id="87"><path d="M 845.60 735.90 L 892.60 763.20 C 891.80 762.70 891.00 762.30 890.10 762.00 L 843.10 734.70 C 844.00 735.10 844.90 735.50 845.60 735.90 Z" fill="#000000" fill-rule="nonzero" node-id="221" stroke="none" target-height="28.5" target-width="49.5" target-x="843.1" target-y="734.7"></path></clipPath></defs><g node-id="338"><path d="M 676.60 121.30 C 677.30 121.00 678.10 120.80 678.80 120.50 C 679.30 120.40 679.70 120.20 680.20 120.10 C 680.60 120.00 681.10 119.90 681.50 119.80 C 682.10 119.70 682.60 119.60 683.20 119.50 C 683.50 119.50 683.80 119.40 684.10 119.40 C 684.80 119.40 685.40 119.30 686.10 119.40 C 686.30 119.40 686.40 119.40 686.60 119.40 C 687.40 119.40 688.20 119.50 688.90 119.70 C 689.10 119.70 689.30 119.80 689.40 119.80 C 690.00 119.90 690.60 120.10 691.10 120.30 C 691.30 120.40 691.50 120.40 691.60 120.50 C 692.30 120.80 693.00 121.10 693.70 121.50 L 626.00 82.20 C 625.90 82.20 625.90 82.10 625.80 82.10 C 625.30 81.80 624.80 81.60 624.20 81.30 C 624.10 81.30 624.00 81.20 623.90 81.20 C 623.70 81.10 623.50 81.10 623.40 81.00 C 623.10 80.90 622.90 80.80 622.60 80.70 C 622.30 80.60 622.00 80.60 621.70 80.50 C 621.50 80.50 621.30 80.40 621.10 80.40 C 621.00 80.40 620.90 80.30 620.80 80.30 C 620.20 80.20 619.60 80.10 618.90 80.10 C 618.90 80.10 618.80 80.10 618.80 80.10 C 618.60 80.10 618.50 80.10 618.30 80.10 C 617.80 80.10 617.30 80.10 616.80 80.10 C 616.60 80.10 616.50 80.10 616.30 80.20 C 616.00 80.20 615.70 80.30 615.40 80.30 C 615.10 80.30 614.80 80.30 614.50 80.40 C 614.20 80.40 614.00 80.50 613.70 80.60 C 613.30 80.70 612.90 80.80 612.40 80.90 C 612.20 81.00 611.90 81.00 611.70 81.00 C 611.50 81.10 611.20 81.20 611.00 81.20 C 610.30 81.40 609.50 81.70 608.80 82.00 C 608.50 82.10 608.30 82.20 608.00 82.30 C 607.90 82.40 607.70 82.50 607.60 82.50 C 606.30 83.10 605.00 83.70 603.70 84.50 L 221.30 305.20 C 219.60 306.20 218.00 307.30 216.40 308.50 C 216.10 308.70 215.90 308.90 215.60 309.10 C 214.10 310.30 212.60 311.60 211.20 313.00 C 211.10 313.10 211.00 313.20 210.80 313.30 C 210.60 313.50 210.40 313.80 210.10 314.00 C 209.40 314.70 208.70 315.50 208.00 316.20 C 207.80 316.40 207.60 316.70 207.30 316.90 C 207.10 317.10 206.90 317.30 206.80 317.50 C 206.40 318.00 206.00 318.50 205.60 319.00 C 205.30 319.30 205.10 319.60 204.80 320.00 C 204.60 320.30 204.40 320.60 204.20 320.80 C 203.90 321.20 203.60 321.60 203.30 322.00 C 203.10 322.30 202.90 322.50 202.70 322.80 C 202.40 323.30 202.10 323.80 201.70 324.20 C 201.50 324.50 201.30 324.80 201.10 325.10 C 201.00 325.20 200.90 325.30 200.90 325.50 C 200.30 326.40 199.80 327.30 199.30 328.10 C 199.30 328.20 199.20 328.20 199.20 328.30 C 199.10 328.50 199.00 328.70 198.90 328.90 C 198.50 329.50 198.20 330.10 197.90 330.80 C 197.70 331.10 197.60 331.40 197.40 331.70 C 197.20 332.00 197.10 332.30 196.90 332.60 C 196.80 332.90 196.60 333.10 196.50 333.40 C 196.10 334.10 195.80 334.90 195.50 335.60 C 195.40 335.70 195.40 335.80 195.30 336.00 C 195.30 336.00 195.30 336.10 195.30 336.10 C 194.90 337.00 194.50 338.00 194.20 338.90 C 194.10 339.10 194.10 339.20 194.00 339.40 C 193.90 339.70 193.80 340.10 193.60 340.40 C 193.40 340.90 193.30 341.30 193.10 341.80 C 193.00 342.20 192.90 342.50 192.80 342.90 C 192.70 343.30 192.50 343.80 192.40 344.20 C 192.30 344.50 192.20 344.70 192.20 345.00 C 192.10 345.50 192.00 346.00 191.80 346.40 C 191.70 346.90 191.50 347.50 191.40 348.00 C 191.40 348.20 191.30 348.40 191.30 348.60 C 191.20 349.00 191.20 349.40 191.10 349.70 C 190.90 350.50 190.80 351.40 190.70 352.20 C 190.70 352.40 190.60 352.70 190.60 352.90 C 190.60 353.10 190.60 353.30 190.60 353.50 C 190.40 355.40 190.20 357.20 190.20 359.00 L 191.90 945.50 C 191.90 955.30 195.40 962.30 201.00 965.50 L 268.70 1004.80 C 263.10 1001.50 259.60 994.60 259.60 984.80 L 257.90 398.30 C 257.90 396.50 258.00 394.70 258.30 392.80 C 258.40 392.40 258.40 391.90 258.50 391.50 C 258.60 390.70 258.80 389.80 258.90 389.00 C 259.00 388.40 259.10 387.90 259.20 387.30 C 259.30 386.80 259.50 386.20 259.60 385.70 C 259.80 385.00 260.00 384.20 260.20 383.50 C 260.30 383.10 260.50 382.60 260.60 382.20 C 260.90 381.40 261.10 380.50 261.40 379.70 C 261.50 379.40 261.60 379.00 261.80 378.70 C 262.20 377.60 262.70 376.40 263.20 375.30 C 263.30 375.20 263.30 375.10 263.40 374.90 C 263.90 373.90 264.30 372.90 264.80 371.80 C 265.00 371.50 265.10 371.20 265.30 370.90 C 265.80 370.00 266.30 369.00 266.80 368.10 C 266.90 367.90 267.00 367.70 267.10 367.50 C 267.70 366.40 268.40 365.30 269.10 364.30 C 269.30 364.00 269.50 363.70 269.70 363.40 C 270.20 362.60 270.70 361.90 271.30 361.20 C 271.60 360.80 271.90 360.40 272.20 360.00 C 272.70 359.40 273.10 358.80 273.60 358.20 C 274.00 357.70 274.40 357.20 274.80 356.70 C 275.20 356.20 275.60 355.80 276.00 355.30 C 276.70 354.50 277.40 353.80 278.10 353.10 C 278.40 352.80 278.80 352.40 279.10 352.10 C 280.50 350.70 282.00 349.40 283.50 348.20 C 283.80 348.00 284.00 347.80 284.30 347.60 C 285.90 346.40 287.50 345.30 289.20 344.30 L 671.70 123.50 C 673.00 122.70 674.30 122.10 675.60 121.50 C 675.80 121.60 676.20 121.40 676.60 121.30 Z" fill="url(#SVGID_1_)" fill-rule="nonzero" group-id="1" node-id="228" stroke="none" target-height="924.7" target-width="503.5" target-x="190.2" target-y="80.1"></path><g node-id="344"><path d="M 671.50 123.70 C 688.80 113.70 702.80 121.70 702.90 141.60 L 704.60 728.10 C 704.70 747.90 690.70 772.10 673.40 782.10 L 290.90 1002.90 C 273.60 1012.90 259.60 1004.90 259.50 985.00 L 257.80 398.50 C 257.70 378.60 271.70 354.50 289.00 344.50 L 671.50 123.70 Z" fill="url(#SVGID_2_)" fill-rule="nonzero" group-id="1,7" node-id="232" stroke="none" target-height="899.2" target-width="447" target-x="257.7" target-y="113.7"></path></g></g><g node-id="339"><g node-id="345"><path d="M 647.00 293.10 C 648.10 292.80 649.20 292.50 650.20 292.40 C 650.30 292.40 650.40 292.40 650.50 292.40 C 651.60 292.30 652.60 292.40 653.60 292.60 C 653.70 292.60 653.70 292.60 653.80 292.60 C 654.80 292.80 655.70 293.20 656.60 293.70 L 618.00 271.20 C 618.00 271.20 617.90 271.20 617.90 271.10 C 617.60 270.90 617.30 270.80 616.90 270.60 C 616.60 270.50 616.20 270.30 615.90 270.20 C 615.70 270.10 615.40 270.10 615.20 270.00 C 615.10 270.00 615.10 270.00 615.00 270.00 C 614.90 270.00 614.80 270.00 614.80 269.90 C 614.40 269.80 614.00 269.80 613.60 269.80 C 613.20 269.80 612.80 269.80 612.30 269.80 C 612.20 269.80 612.00 269.80 611.90 269.80 C 611.80 269.80 611.70 269.80 611.60 269.80 C 611.40 269.80 611.10 269.80 610.90 269.90 C 610.30 270.00 609.80 270.10 609.20 270.30 C 609.00 270.40 608.70 270.50 608.50 270.60 C 608.30 270.70 608.00 270.80 607.80 270.80 C 607.50 270.90 607.20 271.00 606.90 271.10 C 606.00 271.50 605.10 271.90 604.20 272.40 L 342.50 423.60 C 341.30 424.30 340.00 425.20 338.90 426.10 C 338.50 426.40 338.20 426.80 337.80 427.10 C 337.20 427.60 336.60 428.10 336.10 428.60 C 335.80 428.80 335.60 429.10 335.40 429.40 C 335.20 429.60 335.00 429.90 334.80 430.10 C 334.60 430.40 334.30 430.60 334.10 430.90 C 333.60 431.50 333.00 432.20 332.50 432.80 C 332.30 433.00 332.20 433.30 332.00 433.50 C 331.90 433.60 331.80 433.70 331.70 433.90 C 331.50 434.10 331.40 434.40 331.20 434.60 C 330.80 435.10 330.40 435.70 330.10 436.30 C 329.80 436.80 329.40 437.40 329.10 437.90 C 329.10 437.90 329.00 438.00 329.00 438.00 C 329.00 438.00 329.00 438.10 328.90 438.10 C 328.60 438.60 328.40 439.00 328.10 439.50 C 327.80 440.00 327.50 440.60 327.30 441.10 C 327.10 441.60 326.80 442.10 326.60 442.60 C 326.60 442.60 326.60 442.70 326.60 442.70 C 326.60 442.70 326.60 442.80 326.60 442.80 C 326.40 443.40 326.10 444.00 325.90 444.50 C 325.70 445.10 325.40 445.70 325.20 446.30 C 325.10 446.60 325.00 446.90 324.90 447.20 C 324.90 447.30 324.80 447.50 324.80 447.60 C 324.70 447.80 324.70 448.00 324.60 448.30 C 324.40 449.00 324.20 449.80 324.10 450.50 C 324.00 450.90 323.90 451.40 323.90 451.80 C 323.90 452.00 323.80 452.30 323.80 452.50 C 323.80 452.70 323.70 452.90 323.70 453.10 C 323.50 454.40 323.40 455.60 323.50 456.90 C 323.50 463.00 325.70 467.30 329.20 469.30 L 367.70 491.70 C 364.20 489.70 362.10 485.40 362.00 479.30 C 362.00 477.90 362.10 476.40 362.40 474.90 C 362.40 474.70 362.50 474.40 362.50 474.20 C 362.70 472.80 363.10 471.40 363.50 470.00 C 363.50 469.90 363.60 469.70 363.60 469.60 C 364.10 468.10 364.60 466.50 365.30 465.00 C 365.30 465.00 365.30 464.90 365.30 464.90 C 366.00 463.40 366.70 461.90 367.60 460.40 C 367.60 460.40 367.60 460.30 367.70 460.30 C 368.50 458.90 369.40 457.50 370.40 456.20 C 370.50 456.10 370.60 456.00 370.70 455.80 C 371.60 454.60 372.50 453.50 373.50 452.40 C 373.70 452.20 373.90 451.90 374.10 451.70 C 374.90 450.90 375.70 450.10 376.50 449.40 C 376.90 449.10 377.20 448.70 377.60 448.40 C 378.80 447.50 380.00 446.60 381.20 445.90 L 642.90 294.80 C 644.10 294.10 645.30 293.60 646.50 293.20 C 646.50 293.20 646.70 293.10 647.00 293.10 Z" fill="#b5d6ff" fill-rule="nonzero" group-id="2,8" node-id="240" stroke="none" target-height="221.90002" target-width="333.19998" target-x="323.4" target-y="269.8"></path><g node-id="350"><path d="M 642.70 294.90 C 653.40 288.70 662.10 293.70 662.10 306.00 C 662.10 318.30 653.50 333.30 642.80 339.50 L 381.20 490.60 C 370.50 496.80 361.80 491.80 361.80 479.50 C 361.80 467.20 370.40 452.20 381.10 446.10 L 642.70 294.90 Z" fill="#ffffff" fill-rule="nonzero" group-id="2,8,13" node-id="244" stroke="none" target-height="208.09998" target-width="300.3" target-x="361.8" target-y="288.7"></path></g></g></g><g node-id="340"><g node-id="346"><path d="M 650.10 470.70 C 650.20 470.70 650.30 470.70 650.40 470.70 C 651.50 470.60 652.50 470.70 653.50 470.90 C 653.60 470.90 653.60 470.90 653.70 470.90 C 654.70 471.10 655.60 471.50 656.50 472.00 L 656.50 472.00 C 656.50 472.00 656.50 472.00 656.50 472.00 L 618.00 449.60 C 618.00 449.60 617.90 449.60 617.90 449.50 C 617.60 449.30 617.30 449.20 616.90 449.00 C 616.60 448.90 616.20 448.70 615.90 448.60 C 615.70 448.50 615.40 448.50 615.20 448.40 C 615.10 448.40 615.10 448.40 615.00 448.40 C 614.90 448.40 614.80 448.40 614.80 448.30 C 614.40 448.20 614.00 448.20 613.60 448.20 C 613.20 448.20 612.80 448.20 612.30 448.20 C 612.20 448.20 612.00 448.20 611.90 448.20 C 611.80 448.20 611.70 448.20 611.60 448.20 C 611.40 448.20 611.10 448.20 610.90 448.30 C 610.30 448.40 609.80 448.50 609.20 448.70 C 609.00 448.80 608.70 448.90 608.50 449.00 C 608.30 449.10 608.10 449.20 607.80 449.20 C 607.50 449.30 607.20 449.40 606.90 449.50 C 606.00 449.90 605.10 450.30 604.20 450.80 L 342.50 601.90 C 341.30 602.60 340.00 603.50 338.90 604.40 C 338.50 604.70 338.20 605.10 337.80 605.40 C 337.20 605.90 336.60 606.40 336.10 606.90 C 335.80 607.10 335.60 607.40 335.40 607.70 C 335.20 607.90 335.00 608.20 334.80 608.40 C 334.60 608.70 334.30 608.90 334.10 609.20 C 333.60 609.80 333.00 610.50 332.50 611.10 C 332.30 611.30 332.20 611.60 332.00 611.80 C 331.90 611.90 331.80 612.00 331.70 612.20 C 331.50 612.40 331.40 612.60 331.20 612.90 C 330.80 613.40 330.40 614.00 330.10 614.60 C 329.80 615.10 329.40 615.70 329.10 616.20 C 329.10 616.30 329.00 616.30 329.00 616.40 C 329.00 616.40 329.00 616.50 328.90 616.50 C 328.60 616.90 328.40 617.40 328.10 617.80 C 327.80 618.30 327.50 618.90 327.30 619.40 C 327.10 619.90 326.80 620.40 326.60 620.90 C 326.60 620.90 326.60 620.90 326.60 621.00 C 326.60 621.00 326.60 621.00 326.60 621.10 C 326.40 621.70 326.10 622.30 325.90 622.80 C 325.70 623.40 325.40 624.00 325.20 624.60 C 325.10 624.90 325.00 625.20 324.90 625.50 C 324.90 625.60 324.80 625.80 324.80 625.90 C 324.70 626.10 324.70 626.30 324.60 626.50 C 324.40 627.20 324.20 628.00 324.10 628.70 C 324.00 629.20 323.90 629.60 323.90 630.10 C 323.90 630.30 323.80 630.60 323.80 630.80 C 323.80 631.00 323.70 631.20 323.70 631.40 C 323.50 632.70 323.40 634.00 323.50 635.20 C 323.50 641.30 325.70 645.60 329.20 647.60 L 367.70 670.00 C 364.20 668.00 362.10 663.70 362.00 657.60 C 362.00 656.10 362.10 654.70 362.40 653.20 C 362.40 653.00 362.50 652.70 362.50 652.50 C 362.70 651.10 363.10 649.70 363.50 648.30 C 363.50 648.20 363.60 648.00 363.60 647.90 C 364.10 646.40 364.60 644.80 365.30 643.30 C 365.30 643.30 365.30 643.20 365.30 643.20 C 366.00 641.70 366.70 640.10 367.60 638.70 C 367.60 638.70 367.60 638.60 367.70 638.60 C 368.50 637.20 369.40 635.80 370.40 634.50 C 370.50 634.40 370.60 634.30 370.70 634.10 C 371.60 632.90 372.50 631.80 373.50 630.70 C 373.70 630.50 373.90 630.20 374.10 630.00 C 374.90 629.20 375.70 628.40 376.50 627.70 C 376.90 627.40 377.20 627.00 377.60 626.70 C 378.80 625.80 380.00 624.90 381.20 624.20 L 642.90 473.10 C 644.10 472.40 645.30 471.90 646.50 471.50 C 646.70 471.40 647.00 471.30 647.20 471.30 C 648.10 471.00 649.10 470.80 650.10 470.70 Z" fill="#b5d6ff" fill-rule="nonzero" group-id="3,9" node-id="253" stroke="none" target-height="221.79999" target-width="333.1" target-x="323.4" target-y="448.2"></path><g node-id="351"><path d="M 642.70 473.20 C 653.40 467.00 662.10 472.00 662.10 484.30 C 662.10 496.60 653.50 511.60 642.80 517.70 L 381.20 668.90 C 370.50 675.10 361.80 670.10 361.80 657.80 C 361.80 645.50 370.40 630.50 381.10 624.30 L 642.70 473.20 Z" fill="#ffffff" fill-rule="nonzero" group-id="3,9,14" node-id="257" stroke="none" target-height="208.09998" target-width="300.3" target-x="361.8" target-y="467"></path></g></g></g><g node-id="341"><g node-id="347"><path d="M 650.10 654.80 C 650.20 654.80 650.30 654.80 650.40 654.80 C 651.50 654.70 652.50 654.80 653.50 655.00 C 653.60 655.00 653.60 655.00 653.70 655.00 C 654.70 655.20 655.60 655.60 656.50 656.10 L 656.50 656.10 C 656.50 656.10 656.50 656.10 656.50 656.10 L 618.00 633.60 C 618.00 633.60 617.90 633.60 617.90 633.50 C 617.60 633.30 617.30 633.20 616.90 633.00 C 616.60 632.90 616.20 632.70 615.90 632.60 C 615.70 632.50 615.40 632.50 615.20 632.40 C 615.10 632.40 615.10 632.40 615.00 632.40 C 614.90 632.40 614.80 632.40 614.80 632.30 C 614.40 632.20 614.00 632.20 613.60 632.20 C 613.20 632.20 612.80 632.20 612.30 632.20 C 612.20 632.20 612.00 632.20 611.90 632.20 C 611.80 632.20 611.70 632.20 611.60 632.20 C 611.40 632.20 611.10 632.20 610.90 632.30 C 610.30 632.40 609.80 632.50 609.20 632.70 C 609.00 632.80 608.70 632.90 608.50 633.00 C 608.30 633.10 608.00 633.20 607.80 633.20 C 607.50 633.30 607.20 633.40 606.90 633.50 C 606.00 633.90 605.10 634.30 604.20 634.80 L 342.50 786.00 C 341.30 786.70 340.00 787.60 338.90 788.50 C 338.50 788.80 338.20 789.20 337.80 789.50 C 337.20 790.00 336.60 790.50 336.10 791.00 C 335.80 791.20 335.60 791.50 335.40 791.80 C 335.20 792.00 335.00 792.30 334.80 792.50 C 334.60 792.80 334.30 793.00 334.10 793.30 C 333.60 793.90 333.00 794.60 332.50 795.20 C 332.30 795.40 332.20 795.70 332.00 795.90 C 331.90 796.00 331.80 796.10 331.70 796.30 C 331.50 796.50 331.40 796.80 331.20 797.00 C 330.80 797.50 330.40 798.10 330.10 798.70 C 329.80 799.20 329.40 799.80 329.10 800.30 C 329.10 800.30 329.00 800.40 329.00 800.40 C 329.00 800.40 329.00 800.50 328.90 800.50 C 328.60 801.00 328.40 801.40 328.10 801.90 C 327.80 802.40 327.50 803.00 327.30 803.50 C 327.10 804.00 326.80 804.50 326.60 805.00 C 326.60 805.00 326.60 805.10 326.60 805.10 C 326.60 805.10 326.60 805.20 326.60 805.20 C 326.40 805.80 326.10 806.40 325.90 806.90 C 325.70 807.50 325.40 808.10 325.20 808.70 C 325.10 809.00 325.00 809.30 324.90 809.60 C 324.90 809.70 324.80 809.90 324.80 810.00 C 324.70 810.20 324.70 810.40 324.60 810.70 C 324.40 811.40 324.20 812.20 324.10 812.90 C 324.00 813.30 323.90 813.80 323.90 814.20 C 323.90 814.40 323.80 814.70 323.80 814.90 C 323.80 815.10 323.70 815.30 323.70 815.50 C 323.50 816.80 323.40 818.00 323.50 819.30 C 323.50 822.40 324.10 825.00 325.00 827.00 C 326.00 829.10 327.40 830.70 329.10 831.70 L 367.60 854.10 C 364.10 852.10 362.00 847.80 361.90 841.70 C 361.90 840.30 362.00 838.80 362.30 837.30 C 362.30 837.10 362.40 836.80 362.40 836.60 C 362.60 835.20 363.00 833.80 363.40 832.40 C 363.40 832.30 363.50 832.10 363.50 832.00 C 364.00 830.50 364.50 828.90 365.20 827.40 C 365.20 827.40 365.20 827.30 365.20 827.30 C 365.90 825.80 366.60 824.30 367.50 822.80 C 367.50 822.80 367.50 822.70 367.60 822.70 C 368.40 821.30 369.30 819.90 370.30 818.60 C 370.40 818.50 370.50 818.40 370.60 818.20 C 371.50 817.00 372.40 815.90 373.40 814.80 C 373.60 814.60 373.80 814.30 374.00 814.10 C 374.80 813.30 375.60 812.50 376.40 811.80 C 376.80 811.50 377.10 811.10 377.50 810.80 C 378.70 809.90 379.90 809.00 381.10 808.30 L 642.80 657.20 C 644.00 656.50 645.20 656.00 646.40 655.60 C 646.60 655.50 646.90 655.40 647.10 655.40 C 648.10 655.10 649.10 654.90 650.10 654.80 Z" fill="#b5d6ff" fill-rule="nonzero" group-id="4,10" node-id="266" stroke="none" target-height="221.89996" target-width="333.1" target-x="323.4" target-y="632.2"></path><g node-id="352"><path d="M 642.70 657.30 C 653.40 651.10 662.10 656.10 662.10 668.40 C 662.10 680.70 653.50 695.70 642.80 701.80 L 381.20 852.90 C 370.50 859.10 361.80 854.10 361.80 841.80 C 361.80 829.50 370.40 814.50 381.10 808.40 L 642.70 657.30 Z" fill="#ffffff" fill-rule="nonzero" group-id="4,10,15" node-id="270" stroke="none" target-height="208" target-width="300.3" target-x="361.8" target-y="651.1"></path></g></g></g><g node-id="342"><path d="M 631.80 68.10 C 632.30 67.90 632.90 67.80 633.40 67.70 C 633.70 67.60 634.00 67.60 634.30 67.50 C 635.10 67.40 635.90 67.30 636.70 67.20 C 636.80 67.20 636.90 67.20 637.00 67.20 C 637.70 67.20 638.40 67.20 639.10 67.30 C 639.30 67.30 639.60 67.40 639.80 67.40 C 640.30 67.50 640.90 67.60 641.40 67.70 C 641.60 67.80 641.90 67.80 642.10 67.90 C 642.70 68.10 643.30 68.30 643.90 68.50 C 644.00 68.50 644.20 68.60 644.30 68.60 C 645.10 68.90 645.80 69.30 646.50 69.70 L 646.50 69.70 C 646.50 69.70 646.50 69.70 646.50 69.70 L 578.80 30.40 C 578.70 30.40 578.70 30.30 578.60 30.30 C 578.00 29.90 577.30 29.60 576.60 29.30 C 576.60 29.30 576.60 29.30 576.50 29.30 C 576.40 29.20 576.20 29.20 576.10 29.20 C 575.60 29.00 575.10 28.80 574.60 28.70 C 574.50 28.70 574.40 28.60 574.20 28.60 C 574.00 28.50 573.70 28.50 573.50 28.40 C 573.20 28.30 572.90 28.30 572.70 28.20 C 572.40 28.20 572.20 28.10 571.90 28.10 C 571.70 28.10 571.40 28.00 571.20 28.00 C 571.10 28.00 570.90 28.00 570.80 28.00 C 570.30 28.00 569.70 28.00 569.20 28.00 C 569.10 28.00 569.00 28.00 568.90 28.00 C 568.90 28.00 568.90 28.00 568.80 28.00 C 568.10 28.00 567.40 28.10 566.70 28.20 C 566.60 28.20 566.50 28.20 566.40 28.30 C 566.10 28.30 565.80 28.40 565.50 28.50 C 565.10 28.60 564.70 28.60 564.30 28.80 C 564.20 28.80 564.00 28.90 563.90 28.90 C 563.30 29.10 562.80 29.30 562.20 29.50 C 561.90 29.60 561.60 29.70 561.30 29.80 C 561.20 29.80 561.10 29.90 561.00 29.90 C 560.00 30.40 558.90 30.90 557.80 31.50 L 265.70 200.20 C 264.30 201.00 263.00 201.90 261.60 203.00 C 261.20 203.30 260.70 203.80 260.30 204.10 C 259.40 204.80 258.50 205.60 257.70 206.40 C 257.60 206.50 257.50 206.60 257.30 206.70 C 256.60 207.40 255.80 208.20 255.10 209.00 C 254.80 209.30 254.60 209.60 254.30 209.90 C 254.30 209.90 254.20 210.00 254.20 210.00 C 253.40 211.00 252.60 211.90 251.70 213.00 C 251.50 213.20 251.40 213.50 251.20 213.70 C 251.00 214.00 250.70 214.30 250.50 214.60 C 250.20 215.10 249.80 215.50 249.50 216.00 C 248.90 216.80 248.40 217.70 247.80 218.50 C 247.70 218.60 247.60 218.80 247.50 218.90 C 247.50 219.00 247.40 219.00 247.40 219.10 C 246.70 220.20 246.00 221.30 245.40 222.40 C 245.20 222.80 245.00 223.20 244.80 223.50 C 244.60 223.90 244.40 224.30 244.10 224.70 C 243.90 225.10 243.60 225.50 243.40 226.00 C 242.80 227.10 242.30 228.20 241.70 229.30 C 241.60 229.50 241.50 229.70 241.40 229.80 C 241.40 229.80 241.40 229.90 241.30 229.90 C 240.60 231.30 239.90 232.80 239.30 234.30 C 239.20 234.50 239.10 234.80 239.00 235.00 C 238.70 235.60 238.50 236.20 238.20 236.90 C 237.90 237.70 237.50 238.50 237.20 239.30 C 237.00 239.70 236.90 240.20 236.70 240.70 C 236.40 241.60 236.10 242.50 235.80 243.30 C 235.60 243.90 235.30 244.50 235.10 245.10 C 234.90 245.60 234.80 246.10 234.60 246.60 C 234.20 247.80 233.80 249.10 233.50 250.30 C 233.30 250.90 233.10 251.50 232.90 252.10 C 232.80 252.50 232.70 252.90 232.60 253.30 C 232.10 255.30 231.60 257.20 231.10 259.20 C 231.00 259.70 230.80 260.20 230.70 260.80 C 230.70 260.90 230.70 261.10 230.60 261.20 C 229.90 264.60 229.30 268.00 228.80 271.40 C 228.70 271.80 228.70 272.10 228.60 272.50 C 228.50 273.00 228.50 273.40 228.50 273.90 C 228.30 275.80 228.10 277.60 228.00 279.50 C 227.90 280.30 227.90 281.20 227.80 282.00 C 227.60 284.70 227.50 287.40 227.50 290.10 L 295.20 329.40 C 295.20 326.70 295.30 324.00 295.50 321.30 C 295.60 320.50 295.60 319.60 295.70 318.80 C 295.80 316.90 296.00 315.00 296.20 313.20 C 296.30 312.40 296.40 311.60 296.50 310.70 C 297.00 307.30 297.50 303.80 298.30 300.50 C 298.40 299.80 298.60 299.20 298.70 298.60 C 299.10 296.60 299.60 294.60 300.20 292.70 C 300.50 291.70 300.70 290.70 301.00 289.70 C 301.40 288.50 301.70 287.20 302.10 286.00 C 302.50 284.90 302.80 283.80 303.20 282.70 C 303.50 281.80 303.80 280.90 304.10 280.10 C 304.60 278.80 305.10 277.60 305.60 276.30 C 305.90 275.70 306.10 275.00 306.40 274.40 C 307.20 272.60 308.00 270.80 308.80 269.10 C 308.90 268.90 309.00 268.80 309.10 268.60 C 309.90 267.00 310.70 265.50 311.50 264.00 C 311.70 263.60 311.90 263.20 312.10 262.80 C 313.00 261.20 313.90 259.70 314.80 258.20 C 314.90 258.10 315.00 257.90 315.10 257.80 C 316.00 256.40 316.90 255.10 317.80 253.90 C 318.00 253.60 318.30 253.30 318.50 253.00 C 319.50 251.70 320.50 250.40 321.60 249.20 C 321.90 248.90 322.10 248.60 322.40 248.30 C 323.20 247.40 324.10 246.50 324.90 245.70 C 325.80 244.90 326.70 244.10 327.50 243.40 C 327.90 243.00 328.40 242.60 328.80 242.30 C 330.10 241.30 331.50 240.30 332.90 239.50 L 625.70 70.70 C 626.80 70.10 627.80 69.60 628.90 69.10 C 629.30 68.90 629.70 68.80 630.10 68.70 C 630.60 68.50 631.20 68.20 631.80 68.10 Z" fill="url(#SVGID_3_)" fill-rule="nonzero" group-id="5" node-id="277" stroke="none" target-height="301.4" target-width="419" target-x="227.5" target-y="28"></path><g node-id="348"><path d="M 625.70 70.70 C 646.70 58.60 663.80 79.20 663.90 116.80 L 295.50 329.50 C 295.40 291.90 312.30 251.60 333.30 239.50 L 625.70 70.70 Z" fill="url(#SVGID_4_)" fill-rule="nonzero" group-id="5,11" node-id="281" stroke="none" target-height="270.9" target-width="368.50003" target-x="295.4" target-y="58.6"></path><g node-id="353"><g node-id="357"><path d="M 625.70 70.70 C 646.70 58.60 663.80 79.20 663.90 116.80 L 295.50 329.50 C 295.40 291.90 312.30 251.60 333.30 239.50 L 625.70 70.70 Z" fill="url(#SVGID_6_)" fill-rule="nonzero" group-id="5,11,16,20" node-id="287" stroke="none" target-height="270.9" target-width="368.50003" target-x="295.4" target-y="58.6"></path></g></g></g></g><g node-id="343"><g node-id="349"><g node-id="354"><g node-id="358"><g node-id="361"><path d="M 845.60 735.90 L 892.60 763.20 C 891.80 762.70 891.00 762.30 890.10 762.00 L 843.10 734.70 C 844.00 735.10 844.90 735.50 845.60 735.90 Z" fill="url(#SVGID_11_)" fill-rule="nonzero" group-id="6,12,17,21,24" node-id="303" stroke="none" target-height="28.5" target-width="49.5" target-x="843.1" target-y="734.7"></path></g><g clip-path="url(#SVGID_12_)" group-id="6,12,17,21,25" node-id="306"><path d="M 890.20 762.10 L 843.20 734.80 C 843.40 734.90 843.60 735.00 843.80 735.00 L 890.80 762.30 C 890.60 762.20 890.40 762.10 890.20 762.10" fill="url(#SVGID_13_)" fill-rule="nonzero" group-id="6,12,17,21,25" node-id="308" stroke="none" target-height="27.5" target-width="47.599976" target-x="843.2" target-y="734.8"></path><path d="M 890.80 762.30 L 843.80 735.00 C 844.40 735.20 845.00 735.50 845.50 735.80 L 892.50 763.10 C 892.00 762.80 891.40 762.60 890.80 762.30" fill="url(#SVGID_14_)" fill-rule="nonzero" group-id="6,12,17,21,25" node-id="310" stroke="none" target-height="28.099976" target-width="48.700012" target-x="843.8" target-y="735"></path><path d="M 892.50 763.10 L 845.50 735.80 C 845.60 735.80 845.60 735.90 845.70 735.90 L 892.70 763.20 C 892.60 763.20 892.60 763.20 892.50 763.10" fill="url(#SVGID_15_)" fill-rule="nonzero" group-id="6,12,17,21,25" node-id="312" stroke="none" target-height="27.400024" target-width="47.200012" target-x="845.5" target-y="735.8"></path></g></g><path d="M 843.10 734.70 L 685.40 675.80 C 685.00 675.70 684.60 675.50 684.20 675.40 C 684.20 675.40 684.20 675.40 684.20 675.40 C 683.60 675.20 683.10 675.10 682.50 675.00 C 682.40 675.00 682.40 675.00 682.30 675.00 C 682.20 675.00 682.20 675.00 682.10 675.00 C 681.50 674.90 680.90 674.80 680.30 674.80 C 680.30 674.80 680.30 674.80 680.30 674.80 C 680.30 674.80 680.20 674.80 680.20 674.80 C 679.50 674.80 678.90 674.80 678.20 674.80 C 678.10 674.80 678.10 674.80 678.00 674.80 C 677.90 674.80 677.90 674.80 677.80 674.80 C 677.60 674.80 677.40 674.80 677.20 674.80 C 676.90 674.80 676.70 674.80 676.40 674.90 C 676.20 674.90 676.00 674.90 675.80 675.00 C 675.60 675.00 675.50 675.00 675.30 675.10 C 675.20 675.10 675.10 675.10 675.00 675.20 C 674.70 675.20 674.40 675.30 674.10 675.40 C 673.90 675.40 673.70 675.50 673.40 675.50 C 673.10 675.60 672.80 675.60 672.50 675.70 C 672.30 675.70 672.20 675.80 672.00 675.80 C 672.00 675.80 671.90 675.80 671.90 675.80 C 671.30 676.00 670.70 676.20 670.10 676.40 C 670.00 676.40 669.80 676.50 669.70 676.50 C 669.20 676.70 668.70 676.90 668.20 677.10 C 668.10 677.10 668.00 677.20 667.90 677.20 C 667.80 677.20 667.80 677.30 667.70 677.30 C 667.00 677.60 666.20 677.90 665.50 678.30 C 665.40 678.40 665.20 678.40 665.10 678.50 C 664.30 678.90 663.60 679.30 662.80 679.70 C 662.20 680.00 661.70 680.40 661.10 680.70 C 660.90 680.80 660.70 680.90 660.60 681.10 C 660.20 681.40 659.80 681.60 659.40 681.90 C 659.20 682.00 659.00 682.20 658.80 682.30 C 658.40 682.60 658.10 682.80 657.70 683.10 C 657.50 683.30 657.30 683.40 657.10 683.60 C 656.70 683.90 656.40 684.20 656.00 684.50 C 655.80 684.70 655.60 684.80 655.40 685.00 C 655.00 685.40 654.50 685.70 654.10 686.10 C 654.00 686.20 653.90 686.30 653.80 686.40 C 653.30 686.90 652.70 687.40 652.20 687.90 C 652.00 688.00 651.90 688.20 651.70 688.30 C 651.40 688.60 651.10 688.90 650.80 689.20 C 650.70 689.30 650.70 689.30 650.60 689.40 C 650.20 689.80 649.80 690.30 649.30 690.70 C 649.10 690.90 648.90 691.10 648.70 691.30 C 648.10 691.90 647.50 692.60 646.90 693.30 C 646.90 693.30 646.90 693.30 646.90 693.30 C 646.90 693.30 646.90 693.30 646.90 693.30 C 646.00 694.30 645.20 695.30 644.40 696.40 C 644.30 696.50 644.20 696.60 644.10 696.70 C 644.00 696.80 644.00 696.80 643.90 696.90 C 643.20 697.80 642.60 698.70 641.90 699.60 C 641.90 699.70 641.80 699.70 641.80 699.80 C 641.70 700.00 641.60 700.10 641.50 700.30 C 641.00 701.00 640.60 701.60 640.10 702.30 C 640.00 702.50 639.90 702.60 639.80 702.70 C 639.70 702.80 639.60 703.00 639.60 703.10 C 639.20 703.70 638.80 704.30 638.50 705.00 C 638.40 705.20 638.30 705.40 638.20 705.60 C 638.20 705.70 638.10 705.70 638.10 705.80 C 637.60 706.70 637.10 707.50 636.60 708.40 C 636.60 708.40 636.60 708.40 636.60 708.40 C 636.60 708.40 636.60 708.50 636.50 708.50 C 636.10 709.30 635.70 710.10 635.30 710.90 C 635.20 711.00 635.20 711.10 635.10 711.20 C 635.00 711.30 635.00 711.50 634.90 711.60 C 634.60 712.30 634.20 713.00 633.90 713.70 C 633.80 713.80 633.80 714.00 633.70 714.10 C 633.70 714.10 633.70 714.20 633.60 714.20 C 633.20 715.10 632.90 715.90 632.50 716.80 C 632.50 716.90 632.40 716.90 632.40 717.00 C 632.40 717.10 632.30 717.20 632.30 717.40 C 632.00 718.20 631.70 719.00 631.40 719.80 C 631.40 719.90 631.30 720.00 631.30 720.10 C 631.30 720.10 631.30 720.20 631.30 720.20 C 631.00 721.20 630.70 722.20 630.40 723.10 C 630.40 723.20 630.30 723.30 630.30 723.40 C 630.30 723.50 630.30 723.60 630.20 723.70 C 629.90 724.80 629.60 725.90 629.40 727.00 C 629.40 727.10 629.40 727.20 629.30 727.20 C 629.30 727.40 629.20 727.50 629.20 727.70 C 629.10 728.20 629.00 728.60 628.90 729.10 C 628.90 729.40 628.80 729.60 628.80 729.90 C 628.70 730.40 628.70 730.90 628.60 731.30 C 628.60 731.50 628.50 731.60 628.50 731.80 C 628.50 731.90 628.50 731.90 628.50 732.00 C 628.40 732.70 628.30 733.40 628.30 734.10 C 628.30 734.20 628.30 734.30 628.30 734.50 C 628.30 735.10 628.20 735.70 628.20 736.20 C 628.20 736.40 628.20 736.60 628.20 736.90 C 628.20 737.40 628.20 737.80 628.20 738.30 C 628.20 738.50 628.20 738.80 628.20 739.00 C 628.20 739.50 628.20 740.00 628.30 740.50 C 628.30 740.70 628.30 740.80 628.30 741.00 C 628.30 741.60 628.40 742.30 628.50 742.90 C 628.50 743.00 628.50 743.20 628.60 743.30 C 628.70 743.80 628.70 744.30 628.80 744.70 C 628.80 744.90 628.90 745.10 628.90 745.30 C 629.00 745.70 629.10 746.10 629.20 746.50 C 629.20 746.70 629.30 746.90 629.30 747.10 C 629.40 747.60 629.50 748.00 629.70 748.40 C 629.70 748.50 629.80 748.60 629.80 748.70 C 630.00 749.20 630.20 749.80 630.40 750.30 C 630.50 750.40 630.50 750.60 630.60 750.70 C 630.80 751.10 630.90 751.40 631.10 751.80 C 631.20 752.00 631.30 752.10 631.40 752.30 C 631.60 752.60 631.80 752.90 631.90 753.30 C 632.00 753.40 632.10 753.60 632.20 753.70 C 632.40 754.10 632.70 754.50 633.00 754.80 C 633.00 754.90 633.10 754.90 633.10 755.00 C 633.40 755.40 633.70 755.80 634.10 756.20 C 634.20 756.30 634.30 756.40 634.40 756.50 C 634.70 756.80 634.90 757.00 635.20 757.30 C 635.30 757.40 635.50 757.50 635.60 757.60 C 635.90 757.80 636.10 758.10 636.40 758.30 C 636.50 758.40 636.60 758.50 636.80 758.60 C 637.20 758.90 637.60 759.20 638.10 759.40 L 685.10 786.70 C 684.70 786.40 684.20 786.20 683.80 785.90 C 683.70 785.80 683.60 785.70 683.40 785.60 C 683.10 785.40 682.80 785.20 682.60 784.90 C 682.50 784.80 682.30 784.70 682.20 784.60 C 681.90 784.40 681.70 784.10 681.40 783.80 C 681.30 783.70 681.20 783.60 681.10 783.50 C 680.80 783.10 680.40 782.70 680.10 782.30 C 680.10 782.20 680.00 782.20 680.00 782.10 C 679.70 781.70 679.50 781.40 679.20 781.00 C 679.10 780.90 679.00 780.70 678.90 780.60 C 678.70 780.30 678.50 780.00 678.40 779.60 C 678.30 779.40 678.20 779.30 678.10 779.10 C 677.90 778.70 677.80 778.40 677.60 778.00 C 677.50 777.90 677.50 777.70 677.40 777.60 C 677.20 777.10 677.00 776.60 676.80 776.00 C 676.80 775.90 676.70 775.80 676.70 775.70 C 676.60 775.30 676.40 774.80 676.30 774.40 C 676.30 774.20 676.20 774.00 676.20 773.80 C 676.10 773.40 676.00 773.00 675.90 772.60 C 675.90 772.40 675.80 772.20 675.80 772.00 C 675.70 771.50 675.60 771.10 675.60 770.60 C 675.60 770.50 675.60 770.30 675.50 770.20 C 675.40 769.60 675.40 769.00 675.30 768.30 C 675.30 768.10 675.30 768.00 675.30 767.80 C 675.30 767.30 675.30 766.80 675.20 766.30 C 675.20 766.10 675.20 765.90 675.20 765.60 C 675.20 765.10 675.20 764.70 675.20 764.20 C 675.20 764.00 675.20 763.80 675.20 763.50 C 675.20 762.90 675.30 762.40 675.30 761.80 C 675.30 761.70 675.30 761.60 675.30 761.40 C 675.40 760.70 675.40 760.00 675.50 759.30 C 675.50 759.10 675.60 758.90 675.60 758.60 C 675.70 758.10 675.70 757.60 675.80 757.20 C 675.80 756.90 675.90 756.70 675.90 756.40 C 676.00 755.90 676.10 755.50 676.20 755.00 C 676.20 754.80 676.30 754.50 676.30 754.30 C 676.50 753.20 676.80 752.10 677.10 751.00 C 677.20 750.80 677.20 750.60 677.30 750.40 C 677.60 749.40 677.90 748.50 678.20 747.50 C 678.30 747.30 678.30 747.20 678.40 747.00 C 678.70 746.20 679.00 745.40 679.30 744.60 C 679.40 744.40 679.40 744.20 679.50 744.00 C 679.80 743.10 680.20 742.30 680.60 741.40 C 680.70 741.20 680.80 741.00 680.80 740.90 C 681.10 740.20 681.40 739.50 681.80 738.80 C 681.90 738.60 682.00 738.30 682.10 738.10 C 682.50 737.30 682.90 736.50 683.30 735.70 C 683.30 735.60 683.40 735.60 683.40 735.50 C 683.90 734.60 684.40 733.70 684.90 732.90 C 685.00 732.60 685.20 732.40 685.40 732.10 C 685.80 731.50 686.20 730.80 686.60 730.20 C 686.80 729.90 687.00 729.60 687.10 729.30 C 687.50 728.60 688.00 727.90 688.50 727.30 C 688.70 727.10 688.80 726.90 689.00 726.60 C 689.70 725.70 690.30 724.80 691.00 723.90 C 691.10 723.70 691.30 723.60 691.40 723.40 C 692.20 722.40 693.10 721.30 693.90 720.30 C 693.90 720.30 693.90 720.30 693.90 720.30 C 694.50 719.60 695.10 719.00 695.70 718.30 C 695.90 718.10 696.10 717.90 696.30 717.70 C 696.70 717.30 697.10 716.80 697.60 716.40 C 698.00 716.00 698.30 715.70 698.70 715.30 C 698.90 715.20 699.00 715.00 699.10 714.90 C 699.60 714.40 700.20 713.90 700.70 713.40 C 700.80 713.30 700.90 713.20 701.00 713.10 C 701.40 712.70 701.90 712.30 702.30 712.00 C 702.50 711.80 702.70 711.70 702.90 711.50 C 703.30 711.20 703.60 710.90 704.00 710.60 C 704.20 710.40 704.40 710.30 704.60 710.10 C 705.00 709.80 705.30 709.60 705.70 709.30 C 705.90 709.20 706.10 709.00 706.30 708.90 C 706.70 708.60 707.10 708.40 707.50 708.10 C 707.70 708.00 707.90 707.90 708.00 707.70 C 708.60 707.30 709.10 707.00 709.70 706.70 C 710.50 706.30 711.20 705.80 712.00 705.50 C 712.10 705.40 712.30 705.40 712.40 705.30 C 713.10 704.90 713.90 704.60 714.60 704.30 C 714.80 704.20 714.90 704.20 715.10 704.10 C 715.60 703.90 716.10 703.70 716.60 703.50 C 716.70 703.50 716.90 703.40 717.00 703.40 C 717.60 703.20 718.20 703.00 718.80 702.80 C 719.00 702.70 719.20 702.70 719.40 702.60 C 719.70 702.50 720.00 702.50 720.30 702.40 C 720.50 702.40 720.70 702.30 721.00 702.30 C 721.30 702.20 721.60 702.20 721.90 702.10 C 722.10 702.10 722.40 702.00 722.60 702.00 C 722.80 702.00 723.00 701.90 723.20 701.90 C 723.50 701.90 723.70 701.90 724.00 701.80 C 724.20 701.80 724.40 701.80 724.60 701.80 C 724.70 701.80 724.90 701.80 725.00 701.80 C 725.70 701.80 726.30 701.80 727.00 701.80 C 727.00 701.80 727.10 701.80 727.10 701.80 C 727.70 701.80 728.30 701.90 728.90 702.00 C 729.00 702.00 729.20 702.00 729.30 702.10 C 729.90 702.20 730.50 702.30 731.00 702.50 C 731.40 702.60 731.80 702.80 732.20 702.90 L 889.90 761.80 L 843.10 734.70 Z" fill="url(#SVGID_16_)" fill-rule="nonzero" group-id="6,12,17" node-id="316" stroke="none" target-height="111.900024" target-width="261.7" target-x="628.2" target-y="674.8"></path><path d="M 709.90 707.00 C 717.90 702.40 725.90 700.80 732.50 703.20 L 890.20 762.10 C 904.70 767.50 906.50 791.00 894.10 814.20 C 887.30 827.00 877.60 837.20 867.80 842.80 C 859.80 847.40 851.80 849.00 845.20 846.60 L 687.50 787.70 C 673.00 782.30 671.20 758.80 683.60 735.60 C 690.40 722.80 700.10 712.70 709.90 707.00 Z" fill="url(#SVGID_17_)" fill-rule="nonzero" group-id="6,12,17,22" node-id="320" stroke="none" target-height="148.20001" target-width="235.29999" target-x="671.2" target-y="700.8"></path></g><g node-id="355"><path d="M 465.50 792.80 C 465.50 791.70 465.60 790.50 465.60 789.40 C 465.60 788.90 465.60 788.30 465.70 787.80 C 465.80 786.60 465.80 785.30 465.90 784.10 C 465.90 783.70 465.90 783.30 466.00 783.00 C 466.10 781.40 466.20 779.80 466.40 778.20 C 466.40 777.80 466.50 777.40 466.50 777.00 C 466.60 775.80 466.70 774.50 466.90 773.20 C 467.00 772.70 467.00 772.10 467.10 771.60 C 467.20 770.40 467.40 769.30 467.50 768.10 C 467.60 767.60 467.60 767.10 467.70 766.60 C 467.80 765.80 467.90 765.00 468.00 764.10 C 468.20 763.00 468.30 761.90 468.50 760.70 C 468.60 759.90 468.70 759.10 468.90 758.30 C 469.10 757.20 469.20 756.10 469.40 755.00 C 469.50 754.20 469.70 753.30 469.80 752.50 C 470.00 751.40 470.20 750.30 470.40 749.20 C 470.60 748.40 470.70 747.50 470.90 746.70 C 471.10 745.60 471.30 744.50 471.60 743.40 C 471.80 742.50 472.00 741.60 472.20 740.70 C 472.40 740.00 472.50 739.20 472.70 738.50 C 472.90 737.50 473.20 736.40 473.40 735.40 C 473.60 734.70 473.70 733.90 473.90 733.20 C 474.20 732.10 474.40 731.10 474.70 730.00 C 474.90 729.30 475.00 728.60 475.20 727.90 C 475.50 726.80 475.80 725.60 476.10 724.50 C 476.30 723.90 476.40 723.30 476.60 722.60 C 476.70 722.20 476.80 721.80 476.90 721.40 C 477.60 719.00 478.20 716.70 479.00 714.30 C 479.20 713.80 479.30 713.30 479.40 712.80 C 480.20 710.30 481.00 707.70 481.80 705.20 C 482.00 704.60 482.20 704.10 482.40 703.50 C 483.10 701.50 483.80 699.40 484.50 697.40 C 484.70 696.90 484.80 696.50 485.00 696.00 C 485.90 693.60 486.80 691.20 487.70 688.80 C 487.90 688.20 488.10 687.70 488.40 687.10 C 489.10 685.20 489.90 683.40 490.60 681.50 C 490.80 680.90 491.10 680.40 491.30 679.80 C 492.20 677.50 493.20 675.20 494.20 672.90 C 494.40 672.50 494.60 672.00 494.80 671.60 C 495.60 669.70 496.50 667.80 497.30 666.00 C 497.60 665.40 497.90 664.70 498.20 664.10 C 499.10 662.00 500.10 660.00 501.10 658.00 C 501.20 657.80 501.30 657.60 501.40 657.30 C 502.50 655.10 503.60 652.80 504.70 650.60 C 505.00 650.00 505.30 649.40 505.60 648.80 C 506.50 647.00 507.40 645.30 508.30 643.50 C 508.60 643.00 508.90 642.40 509.20 641.90 C 510.40 639.70 511.60 637.40 512.80 635.20 C 513.00 634.80 513.30 634.30 513.60 633.90 C 514.60 632.10 515.70 630.20 516.70 628.40 C 517.00 627.80 517.40 627.20 517.70 626.60 C 519.00 624.30 520.40 622.10 521.70 619.80 C 521.80 619.60 522.00 619.30 522.10 619.10 C 523.40 617.00 524.60 615.00 525.90 613.00 C 526.30 612.40 526.60 611.90 527.00 611.30 C 528.50 609.00 530.00 606.70 531.50 604.40 C 531.70 604.10 531.90 603.90 532.00 603.60 C 533.40 601.50 534.90 599.40 536.30 597.30 C 536.60 596.80 537.00 596.30 537.30 595.90 C 539.00 593.50 540.70 591.10 542.50 588.70 C 542.80 588.20 543.20 587.80 543.50 587.40 C 545.30 585.00 547.10 582.50 549.00 580.10 C 549.10 580.00 549.20 579.90 549.20 579.80 C 551.50 576.80 553.80 573.90 556.20 571.00 C 556.20 571.00 556.30 570.90 556.30 570.90 C 558.70 568.00 561.00 565.20 563.50 562.40 C 563.60 562.20 563.80 562.10 563.90 561.90 C 565.40 560.20 566.90 558.50 568.40 556.80 C 568.80 556.30 569.20 555.90 569.70 555.40 C 570.80 554.20 572.00 552.90 573.10 551.70 C 573.60 551.10 574.20 550.60 574.70 550.00 C 575.80 548.80 576.90 547.70 578.00 546.50 C 578.50 546.00 579.00 545.50 579.50 545.00 C 581.00 543.50 582.50 542.00 584.00 540.50 C 584.10 540.40 584.20 540.30 584.30 540.20 C 584.40 540.10 584.60 539.90 584.70 539.80 C 585.90 538.60 587.00 537.50 588.20 536.40 C 588.70 536.00 589.10 535.50 589.60 535.10 C 590.50 534.30 591.40 533.40 592.20 532.60 C 592.70 532.10 593.20 531.60 593.80 531.20 C 594.60 530.40 595.50 529.70 596.30 528.90 C 596.80 528.40 597.40 527.90 597.90 527.40 C 598.70 526.70 599.60 525.90 600.40 525.20 C 601.00 524.70 601.50 524.20 602.10 523.80 C 603.00 523.10 603.80 522.30 604.70 521.60 C 605.20 521.20 605.80 520.70 606.30 520.30 C 607.20 519.50 608.20 518.70 609.10 518.00 C 609.50 517.60 610.00 517.30 610.40 516.90 C 611.80 515.80 613.20 514.70 614.60 513.60 C 614.70 513.50 614.80 513.50 614.80 513.40 C 616.10 512.40 617.50 511.30 618.80 510.30 C 619.30 509.90 619.70 509.60 620.20 509.30 C 621.20 508.60 622.10 507.90 623.10 507.20 C 623.70 506.80 624.20 506.40 624.80 506.00 C 625.70 505.40 626.60 504.70 627.50 504.10 C 628.10 503.70 628.70 503.30 629.20 502.90 C 630.10 502.30 631.00 501.70 631.80 501.10 C 632.40 500.70 633.00 500.30 633.60 499.90 C 634.50 499.30 635.40 498.70 636.30 498.10 C 636.90 497.70 637.40 497.40 638.00 497.00 C 639.00 496.40 640.00 495.80 641.00 495.20 C 641.50 494.90 642.00 494.60 642.40 494.30 C 643.90 493.40 645.40 492.50 646.80 491.70 C 648.20 490.90 649.70 490.10 651.10 489.30 C 651.50 489.10 651.90 488.90 652.30 488.70 C 653.50 488.00 654.70 487.40 656.00 486.70 C 656.20 486.60 656.50 486.50 656.70 486.30 C 658.10 485.60 659.50 484.90 660.90 484.20 C 661.30 484.00 661.60 483.90 662.00 483.70 C 663.10 483.10 664.30 482.60 665.40 482.10 C 665.70 482.00 666.00 481.80 666.40 481.70 C 667.80 481.10 669.20 480.40 670.50 479.80 C 670.80 479.70 671.10 479.60 671.40 479.40 C 672.40 479.00 673.30 478.60 674.30 478.20 C 675.50 477.70 676.60 477.30 677.80 476.80 C 678.40 476.60 679.00 476.30 679.50 476.10 C 681.00 475.50 682.50 475.00 683.90 474.50 C 684.10 474.40 684.40 474.30 684.60 474.30 C 686.30 473.70 688.00 473.20 689.70 472.70 C 690.20 472.50 690.70 472.40 691.20 472.30 C 692.40 471.90 693.60 471.60 694.70 471.30 C 695.50 471.10 696.20 470.90 696.90 470.70 C 697.50 470.50 698.20 470.40 698.80 470.20 C 699.60 470.00 700.40 469.80 701.20 469.60 C 701.80 469.50 702.50 469.30 703.10 469.20 C 703.90 469.00 704.70 468.90 705.50 468.70 C 706.10 468.60 706.70 468.50 707.30 468.30 C 708.10 468.10 709.00 468.00 709.80 467.90 C 710.40 467.80 710.90 467.70 711.50 467.60 C 712.80 467.40 714.10 467.20 715.40 467.00 C 715.60 467.00 715.90 466.90 716.10 466.90 C 717.20 466.80 718.20 466.70 719.30 466.50 C 719.70 466.50 720.20 466.40 720.60 466.40 C 721.50 466.30 722.30 466.30 723.20 466.20 C 723.70 466.20 724.10 466.10 724.60 466.10 C 725.50 466.10 726.40 466.00 727.30 466.00 C 727.60 466.00 728.00 466.00 728.30 466.00 C 729.50 466.00 730.70 466.00 731.90 466.00 C 732.10 466.00 732.30 466.00 732.40 466.00 C 733.40 466.00 734.50 466.00 735.50 466.10 C 735.90 466.10 736.20 466.10 736.60 466.20 C 737.50 466.20 738.40 466.30 739.30 466.40 C 739.60 466.40 739.90 466.40 740.20 466.50 C 741.40 466.60 742.50 466.70 743.60 466.80 C 743.80 466.80 744.00 466.90 744.20 466.90 C 745.10 467.00 746.10 467.10 747.00 467.30 C 747.30 467.40 747.70 467.40 748.00 467.50 C 748.50 467.60 749.10 467.70 749.60 467.80 C 750.80 468.00 752.00 468.30 753.20 468.50 C 753.60 468.60 754.00 468.70 754.30 468.70 C 755.80 469.10 757.30 469.40 758.80 469.90 C 759.10 470.00 759.40 470.10 759.70 470.20 C 760.90 470.60 762.10 470.90 763.20 471.30 C 763.60 471.40 764.00 471.60 764.40 471.70 C 765.60 472.10 766.80 472.60 768.10 473.10 C 768.30 473.20 768.50 473.30 768.70 473.30 C 770.10 473.90 771.40 474.50 772.80 475.10 C 773.20 475.30 773.50 475.50 773.90 475.60 C 774.90 476.10 776.00 476.70 777.00 477.20 C 777.50 477.50 778.10 477.80 778.60 478.10 L 731.60 450.80 C 731.30 450.60 731.00 450.40 730.60 450.20 C 730.40 450.10 730.10 450.00 729.90 449.80 C 728.90 449.20 727.90 448.70 726.80 448.20 C 726.40 448.00 726.10 447.80 725.70 447.70 C 724.40 447.10 723.00 446.40 721.60 445.90 C 721.60 445.90 721.50 445.90 721.50 445.80 C 721.30 445.70 721.20 445.70 721.00 445.60 C 719.80 445.10 718.60 444.60 717.30 444.20 C 716.90 444.10 716.50 443.90 716.10 443.80 C 714.90 443.40 713.80 443.00 712.60 442.70 C 712.40 442.60 712.20 442.60 712.00 442.50 C 711.90 442.50 711.90 442.50 711.80 442.40 C 710.30 442.00 708.80 441.60 707.30 441.20 C 706.90 441.10 706.50 441.00 706.20 441.00 C 705.00 440.70 703.80 440.50 702.60 440.30 C 702.30 440.30 702.10 440.20 701.80 440.10 C 701.50 440.10 701.20 440.00 701.00 440.00 C 700.70 439.90 700.30 439.90 700.00 439.80 C 699.10 439.70 698.10 439.50 697.20 439.40 C 697.00 439.40 696.80 439.30 696.60 439.30 C 695.50 439.20 694.30 439.10 693.20 439.00 C 692.90 439.00 692.60 439.00 692.30 438.90 C 691.80 438.90 691.30 438.80 690.80 438.80 C 690.40 438.80 690.00 438.80 689.60 438.70 C 689.20 438.70 688.90 438.70 688.50 438.60 C 687.50 438.60 686.50 438.50 685.40 438.50 C 685.20 438.50 685.00 438.50 684.90 438.50 C 683.70 438.50 682.50 438.50 681.30 438.50 C 681.00 438.50 680.60 438.50 680.30 438.50 C 679.80 438.50 679.20 438.50 678.70 438.60 C 678.40 438.60 678.00 438.60 677.70 438.70 C 677.20 438.70 676.80 438.80 676.30 438.80 C 675.40 438.90 674.60 438.90 673.70 439.00 C 673.30 439.00 672.80 439.10 672.40 439.10 C 671.30 439.20 670.30 439.30 669.20 439.50 C 669.00 439.50 668.70 439.50 668.50 439.60 C 667.30 439.80 666.10 439.90 664.90 440.10 C 664.80 440.10 664.70 440.10 664.60 440.10 C 664.00 440.20 663.50 440.30 662.90 440.40 C 662.10 440.50 661.20 440.70 660.40 440.80 C 659.80 440.90 659.20 441.00 658.60 441.20 C 657.80 441.40 657.00 441.50 656.20 441.70 C 655.60 441.80 654.90 442.00 654.30 442.10 C 653.50 442.30 652.70 442.50 651.90 442.70 C 651.30 442.90 650.60 443.00 650.00 443.20 C 649.50 443.30 649.00 443.50 648.50 443.60 C 648.30 443.70 648.00 443.70 647.80 443.80 C 646.60 444.10 645.50 444.50 644.30 444.80 C 643.80 445.00 643.30 445.10 642.80 445.20 C 641.10 445.70 639.40 446.30 637.70 446.80 C 637.50 446.90 637.20 447.00 637.00 447.00 C 635.50 447.50 634.10 448.00 632.60 448.60 C 632.00 448.80 631.40 449.00 630.90 449.30 C 629.70 449.70 628.60 450.20 627.40 450.70 C 627.10 450.80 626.80 450.90 626.50 451.00 C 625.80 451.30 625.20 451.60 624.50 451.90 C 624.20 452.00 623.90 452.10 623.60 452.30 C 622.20 452.90 620.80 453.50 619.50 454.20 C 619.20 454.30 618.90 454.50 618.50 454.70 C 617.40 455.20 616.20 455.80 615.10 456.30 C 614.70 456.50 614.40 456.60 614.00 456.80 C 612.60 457.50 611.20 458.20 609.80 458.90 C 609.60 459.00 609.30 459.10 609.10 459.30 C 607.90 459.90 606.70 460.60 605.40 461.30 C 605.00 461.50 604.60 461.70 604.20 461.90 C 602.80 462.70 601.30 463.50 599.90 464.30 C 598.40 465.20 596.90 466.00 595.50 466.90 C 595.00 467.20 594.50 467.50 594.10 467.80 C 593.10 468.40 592.10 469.00 591.10 469.60 C 590.50 470.00 590.00 470.30 589.40 470.70 C 588.50 471.30 587.60 471.90 586.70 472.40 C 586.10 472.80 585.50 473.20 584.90 473.60 C 584.00 474.20 583.10 474.80 582.30 475.40 C 581.70 475.80 581.10 476.20 580.50 476.60 C 579.60 477.20 578.70 477.80 577.80 478.50 C 577.20 478.90 576.70 479.30 576.10 479.70 C 575.10 480.40 574.20 481.10 573.20 481.80 C 572.70 482.20 572.20 482.50 571.80 482.90 C 570.50 483.90 569.10 484.90 567.80 485.90 C 567.70 486.00 567.60 486.00 567.50 486.10 C 566.10 487.20 564.70 488.30 563.30 489.40 C 562.90 489.80 562.40 490.10 562.00 490.50 C 561.00 491.30 560.10 492.00 559.20 492.80 C 558.70 493.20 558.10 493.70 557.60 494.10 C 556.70 494.80 555.90 495.50 555.00 496.30 C 554.40 496.80 553.90 497.30 553.30 497.70 C 552.50 498.40 551.60 499.10 550.80 499.90 C 550.20 500.40 549.70 500.90 549.10 501.40 C 548.30 502.20 547.40 502.90 546.60 503.70 C 546.10 504.20 545.60 504.70 545.00 505.10 C 544.10 505.90 543.20 506.80 542.40 507.60 C 541.90 508.00 541.50 508.50 541.00 508.90 C 539.80 510.00 538.60 511.20 537.50 512.30 C 537.40 512.40 537.20 512.60 537.10 512.70 C 537.10 512.70 537.10 512.70 537.10 512.70 C 537.00 512.80 536.90 512.90 536.80 513.00 C 535.30 514.50 533.80 516.00 532.30 517.50 C 531.80 518.00 531.30 518.50 530.80 519.00 C 529.70 520.10 528.60 521.30 527.50 522.50 C 527.00 523.10 526.40 523.60 525.90 524.20 C 524.80 525.40 523.60 526.70 522.50 527.90 C 522.10 528.40 521.70 528.80 521.30 529.30 C 519.80 531.00 518.30 532.70 516.80 534.40 C 516.80 534.50 516.70 534.50 516.70 534.60 C 516.60 534.70 516.50 534.80 516.40 534.90 C 514.00 537.70 511.60 540.50 509.20 543.40 C 509.20 543.40 509.10 543.50 509.10 543.50 C 506.70 546.40 504.40 549.30 502.10 552.30 C 502.00 552.40 502.00 552.40 501.90 552.50 C 501.90 552.50 501.90 552.60 501.80 552.60 C 499.90 555.00 498.10 557.40 496.30 559.90 C 496.00 560.30 495.60 560.80 495.30 561.20 C 493.50 563.60 491.80 566.00 490.10 568.40 C 490.00 568.60 489.80 568.80 489.70 568.90 C 489.50 569.20 489.30 569.50 489.10 569.80 C 487.60 571.90 486.20 574.00 484.80 576.10 C 484.60 576.40 484.40 576.60 484.30 576.90 C 482.80 579.20 481.20 581.50 479.80 583.80 C 479.60 584.10 479.50 584.30 479.30 584.60 C 479.10 584.90 478.90 585.20 478.70 585.50 C 477.40 587.50 476.10 589.60 474.90 591.60 C 474.80 591.80 474.60 592.00 474.50 592.30 C 473.10 594.50 471.80 596.80 470.50 599.10 C 470.40 599.40 470.20 599.60 470.00 599.90 C 469.80 600.20 469.60 600.60 469.40 600.90 C 468.30 602.70 467.30 604.60 466.30 606.40 C 466.10 606.80 465.80 607.30 465.60 607.70 C 464.40 609.90 463.20 612.10 462.00 614.40 C 461.90 614.60 461.80 614.70 461.70 614.90 C 461.50 615.30 461.30 615.60 461.10 616.00 C 460.20 617.80 459.30 619.50 458.40 621.30 C 458.10 621.90 457.80 622.50 457.50 623.10 C 456.40 625.30 455.30 627.60 454.20 629.80 C 454.20 629.80 454.20 629.90 454.10 629.90 C 454.00 630.10 453.90 630.30 453.80 630.40 C 452.80 632.40 451.90 634.50 450.90 636.60 C 450.60 637.20 450.30 637.90 450.00 638.50 C 449.10 640.40 448.30 642.30 447.50 644.10 C 447.40 644.40 447.20 644.70 447.10 645.10 C 447.10 645.20 447.00 645.30 447.00 645.40 C 446.00 647.70 445.00 650.00 444.10 652.30 C 443.90 652.90 443.60 653.40 443.40 654.00 C 442.60 655.90 441.90 657.70 441.20 659.60 C 441.10 660.00 440.90 660.30 440.80 660.70 C 440.70 660.90 440.70 661.10 440.60 661.30 C 439.70 663.70 438.80 666.10 437.90 668.50 C 437.70 669.00 437.60 669.40 437.40 669.90 C 436.70 671.90 436.00 674.00 435.30 676.00 C 435.20 676.40 435.00 676.70 434.90 677.10 C 434.80 677.30 434.80 677.50 434.70 677.70 C 433.90 680.20 433.00 682.80 432.30 685.30 C 432.10 685.80 432.00 686.30 431.80 686.80 C 431.10 689.20 430.40 691.50 429.70 693.90 C 429.60 694.20 429.50 694.40 429.50 694.70 C 429.50 694.80 429.40 695.00 429.40 695.10 C 429.20 695.70 429.10 696.30 428.90 697.00 C 428.60 698.10 428.30 699.30 428.00 700.40 C 427.80 701.10 427.60 701.80 427.50 702.50 C 427.20 703.60 427.00 704.60 426.70 705.70 C 426.50 706.40 426.40 707.10 426.20 707.90 C 426.00 708.90 425.70 710.00 425.50 711.00 C 425.30 711.70 425.20 712.50 425.00 713.20 C 424.90 713.60 424.80 714.10 424.70 714.50 C 424.60 715.00 424.50 715.50 424.40 715.90 C 424.20 717.00 424.00 718.10 423.70 719.20 C 423.50 720.00 423.40 720.90 423.20 721.70 C 423.00 722.80 422.80 723.90 422.60 725.00 C 422.50 725.80 422.30 726.70 422.20 727.50 C 422.00 728.60 421.80 729.70 421.70 730.80 C 421.60 731.60 421.40 732.40 421.30 733.20 C 421.10 734.30 421.00 735.40 420.80 736.60 C 420.70 737.20 420.60 737.80 420.60 738.40 C 420.60 738.60 420.50 738.90 420.50 739.10 C 420.40 739.60 420.40 740.10 420.30 740.60 C 420.20 741.80 420.00 742.90 419.90 744.10 C 419.80 744.60 419.80 745.20 419.70 745.70 C 419.60 746.90 419.50 748.20 419.30 749.40 C 419.30 749.80 419.20 750.20 419.20 750.60 C 419.10 752.20 418.90 753.80 418.80 755.40 C 418.80 755.80 418.80 756.20 418.70 756.50 C 418.60 757.70 418.60 759.00 418.50 760.20 C 418.50 760.70 418.50 761.30 418.40 761.80 C 418.40 762.90 418.30 764.10 418.30 765.20 C 418.30 765.70 418.30 766.20 418.30 766.70 C 418.30 768.30 418.30 769.90 418.30 771.50 C 418.50 825.70 437.80 863.80 469.20 882.00 L 516.20 909.30 C 484.80 891.10 465.50 853.00 465.30 798.80 C 465.30 797.20 465.30 795.60 465.30 794.00 C 465.40 793.80 465.40 793.30 465.50 792.80 Z" fill="url(#SVGID_18_)" fill-opacity="0.75" fill-rule="nonzero" group-id="6,12,18" node-id="326" stroke="none" target-height="470.8" target-width="360.3" target-x="418.3" target-y="438.5"></path><g node-id="360"><path d="M 647.00 491.80 C 747.60 433.70 829.40 477.10 829.70 588.70 C 830.00 700.30 748.70 837.90 648.10 896.00 C 547.50 954.10 465.70 910.70 465.40 799.10 C 465.10 687.50 546.40 549.90 647.00 491.80 Z" fill="url(#SVGID_19_)" fill-opacity="0.75" fill-rule="nonzero" group-id="6,12,18,23" node-id="330" stroke="none" target-height="520.39996" target-width="364.9" target-x="465.1" target-y="433.7"></path></g></g><path d="M 665.40 590.50 C 721.00 558.40 766.20 582.40 766.40 644.10 C 766.60 705.80 721.70 781.80 666.10 813.90 C 610.50 846.00 565.30 822.00 565.10 760.30 C 564.90 698.60 609.90 622.60 665.40 590.50 Z" fill="url(#SVGID_20_)" fill-rule="nonzero" group-id="6,12,19" node-id="336" stroke="none" target-height="287.59998" target-width="201.69995" target-x="564.9" target-y="558.4"></path></g></g></svg>