<?xml version="1.0" standalone="no"?><!DOCTYPE svg PUBLIC "-//W3C//DTD SVG 1.1//EN" "http://www.w3.org/Graphics/SVG/1.1/DTD/svg11.dtd"><svg height="1024" node-id="1" sillyvg="true" template-height="1024" template-width="1024" version="1.1" viewBox="0 0 1024 1024" width="1024" xmlns="http://www.w3.org/2000/svg" xmlns:xlink="http://www.w3.org/1999/xlink"><defs node-id="37"><linearGradient gradientUnits="objectBoundingBox" id="linearGradient-2" node-id="7" spreadMethod="pad" x1="0.72088474" x2="0.35804775" y1="0.35417992" y2="0.60930437"><stop offset="0" stop-color="#a5bfff"></stop><stop offset="1" stop-color="#b5d7ff"></stop></linearGradient><linearGradient gradientUnits="objectBoundingBox" id="linearGradient-4" node-id="12" spreadMethod="pad" x1="0.70224833" x2="0.22647664" y1="0.26412997" y2="0.944111"><stop offset="0" stop-color="#3e83ee"></stop><stop offset="1" stop-color="#5986f0"></stop></linearGradient><linearGradient gradientUnits="objectBoundingBox" id="linearGradient-6" node-id="17" spreadMethod="pad" x1="0.8053372" x2="0" y1="0.36442262" y2="0.741666"><stop offset="0" stop-color="#459fff"></stop><stop offset="1" stop-color="#c2ddff"></stop><stop offset="1" stop-color="#4b95f2"></stop></linearGradient><filter height="1.845" id="filter-1" node-id="5" width="1.442" x="-0.221" y="-0.423"><feGaussianBlur color-interpolation-filters="linearRGB" in="SourceGraphic" result="result1" stdDeviation="50 50"></feGaussianBlur></filter><filter height="1.017" id="filter-3" node-id="10" width="1.011" x="-0.005" y="-0.009"><feGaussianBlur color-interpolation-filters="linearRGB" in="SourceGraphic" result="result1" stdDeviation="1 1"></feGaussianBlur></filter><filter height="1" id="filter-5" node-id="15" width="1" x="0" y="0"><feGaussianBlur color-interpolation-filters="linearRGB" in="SourceGraphic" result="result1" stdDeviation="0 0"></feGaussianBlur></filter></defs><g node-id="70"><path d="M 182.25 656.17 L 580.24 885.96 L 861.00 619.15 L 404.83 531.14 Z" fill="#595656" fill-opacity="0.316569" fill-rule="evenodd" filter="url(#filter-1)" group-id="1" id="路径-23" node-id="23" stroke="none" target-height="354.8211" target-width="678.75" target-x="182.25" target-y="531.13995"></path></g><g node-id="71"><g node-id="72"><path d="M 510.25 899.00 L 179.00 690.64 L 179.00 542.09 L 510.25 750.19 Z" fill="#b6d5ff" fill-rule="nonzero" group-id="2,3" id="路径" node-id="26" stroke="none" target-height="356.9054" target-width="331.2532" target-x="179" target-y="542.0946"></path><path d="M 510.25 899.00 L 841.51 690.64 L 841.51 542.09 L 510.25 750.19 Z" fill="#95afe7" fill-rule="nonzero" group-id="2,3" id="路径" node-id="27" stroke="none" target-height="356.9054" target-width="331.2532" target-x="510.2532" target-y="542.0946"></path><path d="M 841.51 542.09 L 510.25 750.19 L 179.00 542.09 L 510.25 364.44 Z" fill="url(#linearGradient-2)" fill-rule="nonzero" group-id="2,3" id="路径" node-id="28" stroke="none" target-height="385.74667" target-width="662.5064" target-x="179" target-y="364.4412"></path></g><g node-id="73"><path d="M 274.14 488.34 L 515.12 647.10 L 844.00 466.12 L 559.07 300.01 Z" fill="#5f6fa5" fill-opacity="0.13537017" fill-rule="evenodd" filter="url(#filter-3)" group-id="2,4" id="路径-24" node-id="29" stroke="none" target-height="347.09055" target-width="569.8647" target-x="274.1353" target-y="300.0143"></path></g><g node-id="74"><path d="M 510.25 610.56 L 179.00 402.20 L 179.00 253.65 L 510.25 461.75 Z" fill="#5da4ff" fill-rule="nonzero" group-id="2,5" id="路径" node-id="31" stroke="none" target-height="356.90533" target-width="331.2532" target-x="179" target-y="253.65343"></path><g node-id="77"><path d="M 510.25 610.56 L 841.51 402.20 L 841.51 253.65 L 510.25 461.75 Z" fill="url(#linearGradient-4)" fill-rule="nonzero" filter="url(#filter-5)" group-id="2,5,8" id="路径" node-id="32" stroke="none" target-height="356.90533" target-width="331.2532" target-x="510.2532" target-y="253.65343"></path></g><path d="M 841.51 253.65 L 510.25 461.75 L 179.00 253.65 L 510.25 76.00 Z" fill="url(#linearGradient-6)" fill-rule="nonzero" group-id="2,5" id="路径" node-id="33" stroke="none" target-height="385.7467" target-width="662.5064" target-x="179" target-y="76"></path></g><g node-id="75"><path d="M 390.91 266.00 L 375.87 176.13 L 450.79 175.48 L 479.88 175.02 L 487.24 174.73 L 489.99 174.40 L 496.37 209.70 L 421.83 209.69 L 429.06 266.01 L 390.91 266.00 Z" fill="#1960d1" fill-rule="nonzero" group-id="2,6" id="路径-22" node-id="34" stroke="none" target-height="91.604004" target-width="120.50406" target-x="375.86505" target-y="174.40292"></path></g><path d="M 511.19 328.54 L 613.27 328.55 L 613.07 249.63 L 613.26 233.28 L 568.90 233.28 L 568.90 289.16 L 511.19 289.15 L 511.19 328.54 Z" fill="#1960d1" fill-rule="nonzero" group-id="2,7" id="路径-22备份" node-id="35" stroke="none" target-height="95.27252" target-width="102.08484" target-x="511.18683" target-y="233.27686"></path></g></svg>