<?xml version="1.0" standalone="no"?><!DOCTYPE svg PUBLIC "-//W3C//DTD SVG 1.1//EN" "http://www.w3.org/Graphics/SVG/1.1/DTD/svg11.dtd"><svg height="1024" node-id="1" sillyvg="true" template-height="1024" template-width="1024" version="1.1" viewBox="0 0 1024 1024" width="1024" xmlns="http://www.w3.org/2000/svg" xmlns:xlink="http://www.w3.org/1999/xlink"><defs node-id="69"><linearGradient gradientUnits="userSpaceOnUse" id="SVGID_1_" node-id="2" spreadMethod="pad" x1="841.8789" x2="841.8789" y1="568.6563" y2="500.7607"><stop offset="0.1626" stop-color="#ffffff" stop-opacity="0.5"></stop><stop offset="1" stop-color="#c6c6c6" stop-opacity="0.8"></stop></linearGradient><linearGradient gradientUnits="userSpaceOnUse" id="SVGID_2_" node-id="6" spreadMethod="pad" x1="198.8906" x2="198.8906" y1="555.4121" y2="500.7612"><stop offset="0.1626" stop-color="#ffffff" stop-opacity="0.5"></stop><stop offset="1" stop-color="#c6c6c6" stop-opacity="0.8"></stop></linearGradient><linearGradient gradientUnits="userSpaceOnUse" id="SVGID_3_" node-id="10" spreadMethod="pad" x1="496.3379" x2="496.3379" y1="738.5928" y2="543.5928"><stop offset="0.1626" stop-color="#ffffff" stop-opacity="0.5"></stop><stop offset="1" stop-color="#c6c6c6" stop-opacity="0.8"></stop></linearGradient><linearGradient gradientUnits="userSpaceOnUse" id="SVGID_4_" node-id="14" spreadMethod="pad" x1="257.3086" x2="257.3086" y1="509.5732" y2="584.9868"><stop offset="0.1626" stop-color="#f1f0f5"></stop><stop offset="1" stop-color="#c5c9d2"></stop></linearGradient><linearGradient gradientUnits="userSpaceOnUse" id="SVGID_5_" node-id="19" spreadMethod="pad" x1="773.2656" x2="773.2656" y1="524.9043" y2="600.3179"><stop offset="0.1626" stop-color="#f1f0f5"></stop><stop offset="1" stop-color="#c5c9d2"></stop></linearGradient><linearGradient gradientUnits="userSpaceOnUse" id="SVGID_6_" node-id="24" spreadMethod="pad" x1="188.876" x2="188.876" y1="579.3994" y2="618.8838"><stop offset="0.1626" stop-color="#f1f0f5"></stop><stop offset="1" stop-color="#c5c9d2"></stop></linearGradient><linearGradient gradientUnits="userSpaceOnUse" id="SVGID_7_" node-id="29" spreadMethod="pad" x1="594.3828" x2="594.3828" y1="425.2471" y2="285.1152"><stop offset="0.1626" stop-color="#ffffff" stop-opacity="0.5"></stop><stop offset="1" stop-color="#c6c6c6" stop-opacity="0.8"></stop></linearGradient><linearGradient gradientUnits="userSpaceOnUse" id="SVGID_8_" node-id="33" spreadMethod="pad" x1="424.1592" x2="424.1592" y1="415.4575" y2="355.1812"><stop offset="0.1626" stop-color="#ffffff" stop-opacity="0.5"></stop><stop offset="1" stop-color="#c6c6c6" stop-opacity="0.8"></stop></linearGradient><linearGradient gradientUnits="userSpaceOnUse" id="SVGID_9_" node-id="50" spreadMethod="pad" x1="416.1885" x2="416.1885" y1="423.5098" y2="618.8403"><stop offset="0.1626" stop-color="#dddddd"></stop><stop offset="1" stop-color="#c6c6c6"></stop></linearGradient><linearGradient gradientUnits="userSpaceOnUse" id="SVGID_10_" node-id="54" spreadMethod="pad" x1="628.001" x2="628.001" y1="423.5098" y2="618.8403"><stop offset="0.1626" stop-color="#dddddd"></stop><stop offset="1" stop-color="#c6c6c6"></stop></linearGradient><linearGradient gradientUnits="userSpaceOnUse" id="SVGID_11_" node-id="59" spreadMethod="pad" x1="521.751" x2="521.751" y1="508.2998" y2="626.2993"><stop offset="0.1626" stop-color="#dddddd"></stop><stop offset="1" stop-color="#c6c6c6"></stop></linearGradient></defs><path d="M 883.93 534.71 L 874.56 534.71 C 874.56 515.96 859.37 500.76 840.62 500.76 C 821.87 500.76 806.67 515.96 806.67 534.71 L 799.83 534.71 C 791.20 534.71 784.21 542.31 784.21 551.68 C 784.21 561.06 791.20 568.66 799.83 568.66 L 883.93 568.66 C 892.56 568.66 899.55 561.06 899.55 551.68 C 899.55 542.31 892.56 534.71 883.93 534.71 Z" fill="url(#SVGID_1_)" fill-rule="nonzero" node-id="140" stroke="none" target-height="67.895996" target-width="115.33801" target-x="784.211" target-y="500.761"></path><path d="M 232.74 528.09 L 225.20 528.09 C 225.20 513.00 212.97 500.76 197.87 500.76 C 182.78 500.76 170.55 513.00 170.55 528.09 L 165.04 528.09 C 158.10 528.09 152.47 534.20 152.47 541.75 C 152.47 549.29 158.10 555.41 165.04 555.41 L 232.74 555.41 C 239.68 555.41 245.31 549.29 245.31 541.75 C 245.31 534.20 239.68 528.09 232.74 528.09 Z" fill="url(#SVGID_2_)" fill-rule="nonzero" node-id="142" stroke="none" target-height="54.649994" target-width="92.839005" target-x="152.471" target-y="500.762"></path><path d="M 496.34 543.59 C 290.34 543.59 123.34 630.90 123.34 738.59 L 869.34 738.59 C 869.34 630.90 702.34 543.59 496.34 543.59 Z" fill="url(#SVGID_3_)" fill-rule="nonzero" node-id="144" stroke="none" target-height="195" target-width="746" target-x="123.338" target-y="543.593"></path><path d="M 292.32 546.86 C 293.23 544.08 293.72 541.12 293.72 538.03 C 293.72 522.31 280.98 509.57 265.27 509.57 C 250.00 509.57 237.55 521.59 236.84 536.68 C 225.39 537.76 216.44 547.50 216.44 559.36 C 216.44 571.95 226.53 582.15 238.98 582.15 C 245.95 582.15 252.18 578.95 256.31 573.92 C 260.25 580.55 267.44 584.99 275.64 584.99 C 288.09 584.99 298.18 574.78 298.18 562.20 C 298.18 556.29 295.96 550.91 292.32 546.86 Z" fill="url(#SVGID_4_)" fill-rule="nonzero" node-id="146" stroke="none" target-height="75.41498" target-width="81.74802" target-x="216.435" target-y="509.573"></path><path d="M 272.06 563.11 L 269.46 560.52 L 259.10 570.88 L 259.10 555.07 L 253.77 555.07 L 253.77 571.63 L 247.90 565.77 L 245.31 568.36 L 253.77 576.82 L 253.77 629.74 L 259.10 629.74 L 259.10 576.07 Z" fill="#7f7f7f" fill-rule="nonzero" node-id="148" stroke="none" target-height="74.666016" target-width="26.74701" target-x="245.31" target-y="555.073"></path><path d="M 808.27 562.20 C 809.18 559.41 809.68 556.45 809.68 553.36 C 809.68 537.64 796.94 524.90 781.22 524.90 C 765.96 524.90 753.51 536.92 752.80 552.01 C 741.35 553.10 732.39 562.84 732.39 574.70 C 732.39 587.28 742.48 597.49 754.93 597.49 C 761.90 597.49 768.13 594.28 772.27 589.26 C 776.21 595.88 783.39 600.32 791.60 600.32 C 804.05 600.32 814.14 590.12 814.14 577.53 C 814.14 571.62 811.92 566.24 808.27 562.20 Z" fill="url(#SVGID_5_)" fill-rule="nonzero" node-id="150" stroke="none" target-height="75.41498" target-width="81.74902" target-x="732.391" target-y="524.904"></path><path d="M 788.01 578.44 L 785.42 575.85 L 775.06 586.21 L 775.06 570.40 L 769.73 570.40 L 769.73 586.97 L 763.86 581.10 L 761.27 583.69 L 769.73 592.15 L 769.73 645.07 L 775.06 645.07 L 775.06 591.40 Z" fill="#7f7f7f" fill-rule="nonzero" node-id="152" stroke="none" target-height="74.666016" target-width="26.745972" target-x="761.267" target-y="570.404"></path><path d="M 207.21 598.92 C 207.68 597.47 207.94 595.91 207.94 594.30 C 207.94 586.07 201.27 579.40 193.04 579.40 C 185.05 579.40 178.53 585.69 178.16 593.59 C 172.17 594.16 167.47 599.26 167.47 605.47 C 167.47 612.06 172.76 617.40 179.28 617.40 C 182.93 617.40 186.19 615.72 188.35 613.09 C 190.42 616.56 194.18 618.88 198.47 618.88 C 204.99 618.88 210.28 613.54 210.28 606.95 C 210.28 603.86 209.11 601.04 207.21 598.92 Z" fill="url(#SVGID_6_)" fill-rule="nonzero" node-id="154" stroke="none" target-height="39.483948" target-width="42.800995" target-x="167.475" target-y="579.4"></path><path d="M 196.60 607.43 L 195.24 606.07 L 189.81 611.50 L 189.81 603.22 L 187.02 603.22 L 187.02 611.89 L 183.95 608.82 L 182.59 610.18 L 187.02 614.61 L 187.02 642.31 L 189.81 642.31 L 189.81 614.21 Z" fill="#7f7f7f" fill-rule="nonzero" node-id="156" stroke="none" target-height="39.09204" target-width="14.004013" target-x="182.594" target-y="603.222"></path><path d="M 681.17 355.18 L 661.84 355.18 C 661.84 316.49 630.47 285.12 591.78 285.12 C 553.08 285.12 521.71 316.49 521.71 355.18 L 507.59 355.18 C 489.79 355.18 475.36 370.87 475.36 390.21 C 475.36 409.56 489.79 425.25 507.59 425.25 L 681.17 425.25 C 698.98 425.25 713.41 409.56 713.41 390.21 C 713.41 370.87 698.98 355.18 681.17 355.18 Z" fill="url(#SVGID_7_)" fill-rule="nonzero" node-id="158" stroke="none" target-height="140.13199" target-width="238.04999" target-x="475.359" target-y="285.116"></path><path d="M 461.49 385.32 L 453.18 385.32 C 453.18 368.67 439.68 355.18 423.04 355.18 C 406.39 355.18 392.90 368.67 392.90 385.32 L 386.83 385.32 C 379.17 385.32 372.96 392.07 372.96 400.39 C 372.96 408.71 379.17 415.46 386.83 415.46 L 461.49 415.46 C 469.15 415.46 475.36 408.71 475.36 400.39 C 475.36 392.07 469.15 385.32 461.49 385.32 Z" fill="url(#SVGID_8_)" fill-rule="nonzero" node-id="160" stroke="none" target-height="60.277008" target-width="102.395996" target-x="372.961" target-y="355.181"></path><path d="M 306.20 408.60 C 303.92 416.27 295.45 420.51 295.45 420.51 C 295.45 420.51 290.68 412.33 292.96 404.66 C 295.25 397.00 303.71 392.75 303.71 392.75 C 303.71 392.75 308.48 400.93 306.20 408.60 Z" fill="#d6d6d6" fill-rule="nonzero" node-id="162" stroke="none" target-height="27.764008" target-width="17.793" target-x="290.684" target-y="392.749"></path><path d="M 724.26 474.94 C 721.98 482.61 713.52 486.86 713.52 486.86 C 713.52 486.86 708.75 478.67 711.03 471.01 C 713.31 463.34 721.77 459.09 721.77 459.09 C 721.77 459.09 726.54 467.28 724.26 474.94 Z" fill="#d6d6d6" fill-rule="nonzero" node-id="164" stroke="none" target-height="27.764008" target-width="17.79303" target-x="708.748" target-y="459.093"></path><path d="M 687.67 647.84 C 680.63 651.65 671.65 648.67 671.65 648.67 C 671.65 648.67 674.06 639.51 681.10 635.70 C 688.13 631.89 697.12 634.87 697.12 634.87 C 697.12 634.87 694.70 644.03 687.67 647.84 Z" fill="#d6d6d6" fill-rule="nonzero" node-id="166" stroke="none" target-height="19.757996" target-width="25.470032" target-x="671.647" target-y="631.891"></path><path d="M 261.40 435.06 C 259.99 439.81 254.75 442.44 254.75 442.44 C 254.75 442.44 251.80 437.37 253.21 432.62 C 254.62 427.88 259.87 425.25 259.87 425.25 C 259.87 425.25 262.82 430.31 261.40 435.06 Z" fill="#d6d6d6" fill-rule="nonzero" node-id="168" stroke="none" target-height="17.188995" target-width="11.015015" target-x="251.801" target-y="425.247"></path><path d="M 429.47 485.80 L 523.51 485.80 C 529.21 485.80 532.06 488.65 532.06 494.35 C 532.06 500.05 529.21 502.90 523.51 502.90 L 429.47 502.90 C 423.77 502.90 420.92 500.05 420.92 494.35 C 420.92 488.65 423.77 485.80 429.47 485.80 L 429.47 485.80 Z M 429.47 485.80" fill="#ffffff" fill-rule="nonzero" node-id="170" stroke="none" target-height="17.098999" target-width="111.13599" target-x="420.922" target-y="485.799"></path><path d="M 429.47 528.54 L 497.86 528.54 C 503.56 528.54 506.41 531.39 506.41 537.09 C 506.41 542.79 503.56 545.64 497.86 545.64 L 429.47 545.64 C 423.77 545.64 420.92 542.79 420.92 537.09 C 420.92 531.39 423.77 528.54 429.47 528.54 L 429.47 528.54 Z M 429.47 528.54" fill="#ffffff" fill-rule="nonzero" node-id="172" stroke="none" target-height="17.098022" target-width="85.491" target-x="420.922" target-y="528.545"></path><g node-id="209"><g node-id="211"><path d="M 616.37 433.63 L 612.86 420.22 L 623.81 424.42 Z" fill="#eaeaea" fill-rule="nonzero" group-id="1,3" node-id="178" stroke="none" target-height="13.403015" target-width="10.947998" target-x="612.86" target-y="420.224"></path><g node-id="213"><path d="M 593.05 411.21 L 646.28 391.57 L 604.77 415.44 L 593.05 411.21 Z M 605.18 416.03 L 646.70 392.16 L 611.43 417.93 L 614.85 431.35 L 605.18 416.03 Z M 605.18 416.03" fill="#eaeaea" fill-rule="nonzero" group-id="1,3,5" node-id="182" stroke="none" target-height="39.779022" target-width="53.64801" target-x="593.048" target-y="391.567"></path><path d="M 631.59 426.29 L 623.23 423.00 L 612.28 418.81 L 647.55 393.04 Z" fill="#eaeaea" fill-rule="nonzero" group-id="1,3,5" node-id="184" stroke="none" target-height="33.248016" target-width="35.267944" target-x="612.28" target-y="393.038"></path></g></g></g><path d="M 449.88 423.51 L 595.00 423.51 L 595.00 475.80 L 449.88 475.80 Z" fill="#eaeaea" fill-rule="nonzero" node-id="189" stroke="none" target-height="52.289978" target-width="145.12497" target-x="449.876" target-y="423.51"></path><path d="M 449.88 475.80 L 382.84 618.84 L 382.50 515.30 L 449.88 423.51 Z" fill="url(#SVGID_9_)" fill-rule="nonzero" node-id="191" stroke="none" target-height="195.331" target-width="67.375" target-x="382.501" target-y="423.51"></path><path d="M 595.00 475.80 L 660.66 618.84 L 661.00 515.30 L 595.00 423.51 Z" fill="url(#SVGID_10_)" fill-rule="nonzero" node-id="193" stroke="none" target-height="195.331" target-width="66" target-x="595.001" target-y="423.51"></path><path d="M 660.66 618.84 L 382.84 618.84 L 449.88 475.80 L 595.00 475.80 Z" fill="#f4f4f4" fill-rule="nonzero" node-id="195" stroke="none" target-height="143.04102" target-width="277.82404" target-x="382.839" target-y="475.8"></path><path d="M 661.00 616.30 C 661.00 621.82 656.52 626.30 651.00 626.30 L 392.50 626.30 C 386.98 626.30 382.50 621.82 382.50 616.30 L 382.50 518.30 C 382.50 512.78 386.98 508.30 392.50 508.30 L 651.00 508.30 C 656.52 508.30 661.00 512.78 661.00 518.30 L 661.00 616.30 Z" fill="url(#SVGID_11_)" fill-rule="nonzero" node-id="197" stroke="none" target-height="118" target-width="278.49997" target-x="382.501" target-y="508.3"></path><path d="M 564.58 488.70 C 564.58 488.70 565.13 488.16 565.88 487.18" fill="none" group-id="2,4" node-id="203" stroke="#c1c1c1" stroke-linecap="round" stroke-width="1" target-height="1.5180054" target-width="1.2979736" target-x="564.583" target-y="487.184"></path><path d="M 567.95 483.93 C 569.64 480.68 570.98 476.02 569.16 470.83 C 569.16 470.83 562.29 461.02 559.68 472.36 C 559.68 472.36 565.28 482.49 578.55 473.01 C 578.55 473.01 585.50 464.29 586.59 452.09 C 586.59 452.09 589.59 439.67 594.30 437.82 C 594.30 437.82 598.35 435.27 603.50 434.17" fill="none" group-id="2,4" node-id="205" stroke="#c1c1c1" stroke-dasharray="3.861 3.861" stroke-linecap="round" stroke-width="1" target-height="49.763" target-width="43.82599" target-x="559.679" target-y="434.169"></path><path d="M 605.41 433.84 C 606.07 433.75 606.73 433.70 607.40 433.68" fill="none" group-id="2,4" node-id="207" stroke="#c1c1c1" stroke-linecap="round" stroke-width="1" target-height="0.16400146" target-width="1.9940186" target-x="605.41" target-y="433.675"></path></svg>